<svg width="76" height="56" viewBox="0 0 76 56" fill="none" xmlns="http://www.w3.org/2000/svg">
<g clip-path="url(#clip0_72_2986)">
<path d="M1.91859 33.5925L0.14496 33.0286L-0.0117188 32.5831C1.02585 32.1094 2.03387 31.5568 3.10987 31.1733C5.6432 30.2851 5.84421 30.068 5.58112 27.4684C5.36533 25.3339 4.87462 23.3771 2.32947 22.6102C1.88901 22.4777 1.62003 21.8207 1.27121 21.4062C1.65077 21.0836 2.06493 20.8001 2.50684 20.5604C3.2222 20.2784 3.98486 20.1008 4.80959 19.8583C2.33834 16.7144 1.92449 13.2491 2.71671 9.62879C3.30792 6.98682 5.02835 5.62778 7.80703 5.26123C21.0619 3.51496 34.3178 1.76869 47.5747 0.0224194C48.2024 -0.0469029 48.8384 0.00780751 49.443 0.183138C57.3573 2.43882 65.2647 4.71141 73.1653 7.00092C73.6648 7.14472 74.0757 7.58458 74.525 7.8891C74.126 8.31768 73.8126 8.90134 73.3131 9.14946C70.8241 10.3957 69.2219 14.2727 70.4043 16.596C70.5876 16.9569 71.2468 17.1289 71.7168 17.3206C73.0707 17.8846 74.4393 18.3949 75.805 18.9278L75.7134 19.4917L71.9828 20.4758C74.2738 25.1986 73.9989 29.6169 70.5698 33.8068C70.5698 33.7815 70.5698 33.883 70.626 33.9224C71.1492 34.2721 71.6784 34.616 72.2075 34.96C71.7109 35.414 71.2911 36.0625 70.6999 36.2909C69.0681 36.9168 68.4178 38.149 68.1015 39.6293C67.9903 40.326 67.9222 41.0284 67.8976 41.7327C67.7764 43.2327 68.1133 44.2703 70.0052 44.5861C71.2172 44.7807 72.3346 45.511 73.4963 45.9959C73.4579 46.1708 73.4165 46.3456 73.3781 46.5204C72.5533 46.7459 71.7375 46.9969 70.9039 47.1914C58.388 50.09 45.8661 52.9726 33.3384 55.8391C32.3079 56.0535 31.2368 56.0108 30.2286 55.7151C21.795 53.1774 13.3969 50.5017 4.96331 47.9527C2.82609 47.3071 1.56976 46.0016 0.848483 44.0786C-0.478782 40.5541 -0.174293 37.4808 1.91859 33.5925ZM34.3523 25.4947C34.3523 22.6299 34.3789 20.0557 34.3169 17.4842C34.2761 17.2796 34.1849 17.0872 34.0507 16.923C33.9166 16.7587 33.7433 16.6273 33.5453 16.5396C24.9728 13.8328 16.3736 11.1457 7.75972 8.54324C7.16851 8.36561 6.13094 8.66166 5.69049 9.10716C4.0558 10.7284 4.56128 16.3422 6.39107 17.7972C6.8243 18.0999 7.31687 18.3166 7.83954 18.4344C12.0923 19.5885 16.349 20.7286 20.6097 21.8546L34.3523 25.4947ZM41.4468 38.775C41.7597 38.7979 42.074 38.7979 42.3869 38.775C51.0451 36.4657 59.7064 34.1677 68.3498 31.8049C69.0446 31.5974 69.637 31.1566 70.0171 30.5643C71.3029 28.2607 71.3946 25.7879 70.5846 23.332C70.2003 22.1675 69.2603 21.6403 67.9005 22.0632C59.3575 24.7277 50.8057 27.3725 42.2716 30.0652C42.0722 30.1496 41.8966 30.278 41.7594 30.4398C41.6222 30.6015 41.5272 30.7921 41.4823 30.9957C41.4143 33.5643 41.4468 36.1386 41.4468 38.775ZM32.0377 52.5318C32.0377 49.8137 31.9668 47.4255 32.0703 45.0457C32.1146 44.0307 31.7215 43.6669 30.7933 43.3793C22.5163 40.8417 14.2394 38.259 5.9861 35.6959C4.16813 35.132 2.96797 35.6255 2.78765 37.4272C2.59255 39.3445 2.78765 41.3267 3.08325 43.244C3.26653 44.4677 4.28342 45.1726 5.61069 45.4997C10.4941 46.7544 15.3656 48.0824 20.2313 49.3795L32.0377 52.5318ZM7.1567 31.1338L40.022 38.9216V30.381L6.61869 23.8367C6.81084 26.3067 6.98229 28.6188 7.1567 31.1338ZM35.7653 25.3988L68.6159 17.6054C68.8139 15.0678 69.0002 12.736 69.1893 10.3111L35.7742 16.8639L35.7653 25.3988ZM33.4655 52.4472L66.322 44.651C66.523 42.0936 66.7033 39.7872 66.8955 37.3454L33.4655 43.9856V52.4472Z" fill="url(#paint0_linear_72_2986)"/>
</g>
<defs>
<linearGradient id="paint0_linear_72_2986" x1="37.8966" y1="-0.00671387" x2="37.8966" y2="55.9735" gradientUnits="userSpaceOnUse">
<stop stop-color="#0090EE"/>
<stop offset="1" stop-color="#0470B5"/>
</linearGradient>
<clipPath id="clip0_72_2986">
<rect width="75.8049" height="56" fill="white"/>
</clipPath>
</defs>
</svg>
