<svg width="26" height="31" viewBox="0 0 26 31" fill="none" xmlns="http://www.w3.org/2000/svg">
<g clip-path="url(#clip0_119_6792)">
<path d="M25.9968 15.5415C25.9968 19.4846 25.9968 23.4272 25.9968 27.3694C25.9968 29.6243 24.6352 30.9958 22.3952 30.9972C17.4236 30.9972 12.452 30.9972 7.48044 30.9972C5.27085 30.9972 3.90367 29.6243 3.88986 27.4219C3.88986 26.7762 3.87328 26.1306 3.88986 25.4863C3.91333 24.813 4.34282 24.3802 4.96427 24.3706C5.61334 24.3526 6.06907 24.7936 6.09254 25.5001C6.11602 26.2066 6.09254 26.8827 6.10221 27.574C6.12016 28.3468 6.53722 28.7754 7.3092 28.7768C12.3968 28.7842 17.4844 28.7842 22.572 28.7768C23.4102 28.7768 23.7734 28.3233 23.7748 27.3624C23.7748 21.2063 23.7748 15.0507 23.7748 8.89545C23.7748 7.12023 23.7748 5.34501 23.7748 3.56979C23.7748 2.62411 23.3757 2.22869 22.4256 2.22869C17.4291 2.22869 12.4332 2.22869 7.43763 2.22869C6.49579 2.22869 6.10912 2.62964 6.10083 3.58223C6.10083 4.20577 6.1105 4.82655 6.10083 5.45009C6.08426 6.16349 5.65615 6.6308 5.03056 6.65016C4.38149 6.66951 3.91057 6.18423 3.89538 5.44594C3.88019 4.70765 3.87466 3.96935 3.89538 3.23382C3.91153 2.38026 4.25967 1.56666 4.86574 0.966098C5.47181 0.365531 6.288 0.0253724 7.14072 0.0179641C12.3434 -0.00415699 17.5451 -0.00415699 22.746 0.0179641C24.5785 0.0262596 25.983 1.50008 25.9899 3.36931C26.0065 7.43131 25.9954 11.485 25.9968 15.5415Z" fill="#6C6C6C"/>
<path d="M3.91521 16.7844C5.04578 17.896 6.17774 19.0071 7.31107 20.1178C7.66185 20.4621 7.88143 20.8436 7.70466 21.3511C7.42846 22.1612 6.49214 22.4212 5.8707 21.8073C4.02016 19.9795 2.18804 18.1324 0.374334 16.266C-0.13111 15.7489 -0.124205 15.1889 0.384001 14.6719C2.19311 12.834 4.01326 11.0076 5.84446 9.19273C6.33609 8.70606 7.01278 8.72819 7.44641 9.1789C7.88004 9.62962 7.8759 10.2656 7.37736 10.7813C6.39962 11.7892 5.3984 12.7736 4.40822 13.7704C4.25355 13.9267 4.10993 14.0939 3.85582 14.376H4.72999C7.88143 14.376 11.0329 14.376 14.1857 14.376C14.7754 14.376 15.2297 14.5543 15.441 15.1323C15.7172 15.8899 15.1372 16.5895 14.2078 16.595C12.2288 16.6088 10.2498 16.595 8.26948 16.595H4.00911L3.91521 16.7844Z" fill="#6C6C6C"/>
</g>
<defs>
<clipPath id="clip0_119_6792">
<rect width="26" height="31" fill="white"/>
</clipPath>
</defs>
</svg>
